<svg xmlns="http://www.w3.org/2000/svg" viewBox="0 0 160 160"><path d="M106.87 115.2c-.51 8.72-8.77 18.04-17.93 23.32-11.02 6.35-21.85 6.02-28.25 5.7-5.55-.28-20.87-1.28-35.1-12.45C8.14 118.07 4.57 98.49 3.57 92.51c-.54-3.26-5.42-35.95 18.31-58.93 22.42-21.72 56.1-20.94 71.36-12.17 2.77 1.59 8.93 5.13 12.36 12.46 3.86 8.23 2.01 16.09 1.59 17.68-.44 1.69-1.76 6.59-5.86 11.01-5.8 6.25-11.76 5.7-13.28 10.97-.59 2.05-.47 4.85 1.15 6.64 2.16 2.38 5.94 1.87 6.93 1.73 4.99-.68 8.28-4.47 9.82-6.2 9.17-10.34 15.97-18.01 24.1-20.54.8-.25 9.43-2.79 17.01 1.7 9.19 5.45 10.81 17.9 9.91 25.51-.67 5.68-2.87 9.65-4.37 12.3-6.84 12.07-20.94 22.7-28.36 19.16-2.64-1.26-4.7-4.43-4.79-7.47-.12-3.99 3.15-6.81 3.87-7.42 2.24-1.92 4.43-3.23 9.93-3.34 5.23-.1 10.56.97 15.47-2.9 5.91-4.65 6.3-12.55 6.37-13.87.35-6.96-2.98-15.19-9.62-18.29-.92-.43-4.66-2.06-10.05-.91-15.7 3.33-15.01 23.78-33.93 36.59-3.29 2.22-14.49 9.81-26.82 6.55C68 101 59.41 95.59 57.26 86.55c-.19-.78-2.07-9.25 2.98-16.19 10.16-13.96 34.91-3.07 42.68-15.5 3.8-6.08 1.9-15.1-1.92-20.47-4.61-6.48-12.22-7.94-16.62-8.72-15.09-2.66-32.99 3.19-44.77 14.82-23.07 22.76-18.75 64.29-1.44 85.34 2.82 3.43 10.37 12.61 23.21 15.3 2.16.45 14.56 3.07 24.37-4.09 2.67-1.95 6.31-4.6 6.89-8.78.76-5.53-4.63-8.03-4.11-15.42.1-1.4.4-4.89 3.08-7.54.49-.49 3.32-3.27 7.2-2.74 3.56.49 5.49 3.43 6.17 4.46 2.17 3.3 1.97 6.84 1.88 8.22Z" style="fill:#2626FF;"/></svg>