<svg width="85" height="71" viewBox="0 0 85 71" fill="none" xmlns="http://www.w3.org/2000/svg"><path d="M57.291 54.92c-.278 4.806-4.825 9.949-9.872 12.86-6.068 3.505-12.028 3.32-15.548 3.14-3.055-.15-11.485-.7-19.323-6.867C2.938 56.5.976 45.7.425 42.403c-.3-1.796-2.984-19.828 10.08-32.51C22.848-2.09 41.394-1.66 49.789 3.175c1.527.88 4.911 2.833 6.803 6.874 2.12 4.542 1.106 8.877.878 9.75-.243.93-.971 3.633-3.227 6.072-3.198 3.448-6.474 3.148-7.31 6.052-.328 1.13-.257 2.675.636 3.662 1.185 1.316 3.27 1.03 3.812.959 2.748-.372 4.561-2.468 5.404-3.42 5.047-5.708 8.794-9.935 13.27-11.33.435-.136 5.19-1.538 9.366.937 5.054 3.004 5.953 9.878 5.46 14.077-.37 3.133-1.577 5.33-2.405 6.781-3.762 6.66-11.529 12.518-15.612 10.572-1.449-.694-2.584-2.439-2.634-4.12-.071-2.203 1.735-3.755 2.134-4.091 1.228-1.06 2.442-1.782 5.468-1.839 2.877-.057 5.811.537 8.517-1.602 3.248-2.56 3.469-6.924 3.505-7.654.192-3.84-1.642-8.376-5.297-10.092-.507-.236-2.57-1.138-5.532-.501-8.645 1.838-8.26 13.118-18.682 20.185-1.806 1.224-7.98 5.415-14.77 3.613-3.669-.973-8.401-3.963-9.586-8.949-.1-.429-1.135-5.107 1.642-8.934 5.589-7.703 19.216-1.695 23.492-8.547 2.092-3.355 1.05-8.326-1.056-11.295C51.53 6.76 47.34 5.958 44.913 5.53c-8.309-1.467-18.16 1.76-24.642 8.175-12.7 12.554-10.322 35.464-.792 47.073 1.556 1.896 5.71 6.96 12.778 8.44 1.185.251 8.016 1.696 13.413-2.252 1.47-1.073 3.476-2.54 3.79-4.843.422-3.054-2.548-4.427-2.262-8.504.057-.773.22-2.697 1.699-4.156.27-.265 1.827-1.803 3.961-1.51 1.964.272 3.027 1.889 3.398 2.461 1.192 1.824 1.085 3.77 1.035 4.535z" fill="#000"/></svg>