<svg xmlns="http://www.w3.org/2000/svg" viewBox="0 0 410.9 238"><path d="M11.5 169.3c0 2 .2 3.9.8 5.8.5 1.9 1.3 3.6 2.4 5.3.9 1.5 2.1 2.8 3.5 3.9s3 1.9 4.7 2.4c1.8.6 3.6.9 5.5.9 3.2 0 5.9-.7 8.4-2.2 2.4-1.5 4.2-3.5 5.5-6.1.3-.6.5-1.3.8-2s.4-1.4.6-2.2h11.7c-.3 2.8-.9 5.4-1.9 7.7s-2.3 4.4-3.9 6.4c-3.3 4-7.6 6.8-12.8 8.4-2.6.8-5.3 1.2-8.2 1.2s-5.7-.4-8.6-1.3-5.7-2.3-8.4-4.4c-2.4-1.8-4.4-3.9-6.2-6.4q-2.55-3.75-3.9-8.1c-.5-1.5-.8-3-1-4.5s-.4-3.2-.4-4.8c0-3.4.5-6.6 1.4-9.5 1-2.9 2.3-5.6 3.9-8 1.9-2.6 4-4.8 6.5-6.6s4.9-3.1 7.4-3.9c1.4-.5 2.9-.8 4.4-1.1s3.1-.4 4.7-.4c5.6 0 10.7 1.5 15.2 4.4 2.2 1.4 4.1 3.1 5.8 5.1s3 4.1 4 6.4c1 2.4 1.6 4.9 1.9 7.6H43.6c-.3-1.5-.7-2.9-1.4-4.2s-1.4-2.5-2.3-3.4c-.9-1-2-1.8-3.1-2.6-1.2-.7-2.5-1.3-3.9-1.7-1.5-.4-3-.5-4.5-.5s-4 .3-5.7.9-3.2 1.4-4.4 2.4c-2.8 2.2-4.8 5.2-5.9 9q-.45 1.35-.6 3c-.1 1-.2 2.1-.2 3.1Zm48.1 28.9v-58.1h11.5v47.4h12v10.7zm25.4 0 9.1-58.1h16.4l9.1 58.1h-11.5l-1.7-13.3h-8.2l-1.7 13.3zm14.6-24.1h5.5l-1.9-18.2c0-.8-.1-1.4-.2-2v-4.5h-1v4.8c0 .6 0 1.2-.2 1.7l-1.9 18.2Zm54.4-18.9c0 2.9-.6 5.4-1.8 7.4-.6 1-1.2 1.8-2 2.6s-1.8 1.4-3 1.9q-1.65.75-3.6.9v.8c1.2 0 2.4.4 3.6 1.1 1.1.8 2 1.7 2.7 3 .2.3.3.6.4 1s.2.6.3 1l5.8 23.4h-11.5l-6.8-24.6h-3.7v24.6h-11.5v-58.1H140c1.6 0 3.1.2 4.5.7s2.8 1.2 3.9 2.1c1.2.9 2.2 2 2.9 3.2s1.4 2.6 1.9 4.1c.4 1.6.6 3.3.6 5Zm-19.5 7.7h2.7c.6 0 1.2 0 1.8-.2s1.1-.4 1.6-.8c.9-.7 1.4-1.7 1.8-2.9.1-.6.2-1.2.2-2.1 0-1.9-.5-3.3-1.4-4.4s-2.3-1.6-4-1.6h-2.7V163Zm23.2 35.3 9.1-58.1h16.4l9.1 58.1h-11.5l-1.7-13.3h-8.2l-1.7 13.3zm14.6-24.1h5.5l-1.9-18.2c0-.8-.1-1.4-.1-2s0-1.2-.1-1.9 0-1.6 0-2.6h-1v4.8c0 .6 0 1.2-.1 1.7l-1.9 18.2Zm46.1-4.8c0 2 .2 3.9.8 5.8.5 1.9 1.3 3.6 2.4 5.3.9 1.5 2.1 2.8 3.5 3.9s3 1.9 4.7 2.4c1.8.6 3.6.9 5.5.9 3.2 0 5.9-.7 8.4-2.2 2.4-1.5 4.2-3.5 5.5-6.1.3-.6.6-1.3.8-2s.4-1.4.6-2.2h11.7c-.3 2.8-.9 5.4-1.9 7.7s-2.3 4.4-3.9 6.4c-3.4 4-7.6 6.8-12.8 8.4-2.6.8-5.3 1.2-8.2 1.2s-5.7-.4-8.6-1.3-5.7-2.3-8.4-4.4c-2.4-1.8-4.4-3.9-6.1-6.4q-2.55-3.75-3.9-8.1c-.5-1.5-.8-3-1.1-4.5s-.4-3.2-.4-4.8c0-3.4.5-6.6 1.4-9.5s2.3-5.6 3.9-8c1.9-2.6 4-4.8 6.5-6.6s4.9-3.1 7.4-3.9c1.4-.5 2.9-.8 4.4-1.1s3.1-.4 4.7-.4c5.6 0 10.7 1.5 15.2 4.4 2.2 1.4 4.1 3.1 5.8 5.1s3 4.1 4 6.4c1 2.4 1.6 4.9 1.9 7.6h-11.7c-.3-1.5-.7-2.9-1.4-4.2s-1.4-2.5-2.3-3.4c-.9-1-1.9-1.8-3.1-2.6-1.2-.7-2.5-1.3-3.9-1.7-1.5-.4-3-.5-4.5-.5s-4 .3-5.7.9-3.2 1.4-4.4 2.4c-2.8 2.2-4.8 5.2-5.9 9q-.45 1.35-.6 3c-.1 1-.2 2.1-.2 3.1Zm47.7 14.6v-43.8h11.5v43.8c0 .9.3 1.6.8 2.2.2.3.5.6.8.8s.7.4 1.1.5.8.2 1.2.2q1.5 0 2.7-.9c.7-.6 1.1-1.5 1.1-2.7v-43.8h11.5V184c0 3.6-.9 6.7-2.6 9.1-.9 1.2-2 2.3-3.2 3.1s-2.6 1.5-4.2 2-3.3.7-5.2.7-3.8-.2-5.3-.7-2.9-1.1-4.1-1.9c-2.5-1.7-4.3-4.1-5.2-7.2-.5-1.5-.7-3.2-.7-5Zm60.3 14.3H302v-58.1h24.2v10.8h-12.7V162h11.7v10.7h-11.7v14.8h12.9zm4.4 0v-58.1h11.5v47.4h12v10.7zm27.8 0v-58.1h11.5v47.4h12v10.7zm52.3 0h-24.4v-58.1h24.2v10.8H398V162h11.7v10.7H398v14.8h12.9zM175.6 238c-1.2 0-2.3-.2-3.1-.6-.9-.4-1.5-1-2-1.7s-.8-1.5-.8-2.4h1.8c.1.8.5 1.6 1.2 2.1.7.6 1.7.9 2.9.9s2-.2 2.6-.6.9-.9.9-1.7 0-.8-.3-1.1c-.2-.3-.6-.6-1.1-.8s-1.4-.4-2.6-.6c-1.3-.2-2.4-.6-3.1-.9-.8-.4-1.3-.8-1.6-1.3s-.4-1.1-.4-1.9c0-1.3.4-2.3 1.4-3.1s2.2-1.2 3.8-1.2 2 .2 2.8.6 1.4.9 1.8 1.6.7 1.4.9 2.2l-1.8.2q-.15-.9-.6-1.5c-.3-.4-.7-.8-1.2-1s-1.1-.4-1.9-.4c-1.1 0-1.9.2-2.4.7s-.8 1.1-.8 1.8.1.9.4 1.3c.2.3.6.6 1.1.8s1.3.4 2.2.6q2.1.3 3.3.9c.8.4 1.4.8 1.7 1.3s.5 1.1.5 1.9-.2 1.6-.7 2.2-1.1 1.1-1.9 1.4-1.8.5-2.8.5Zm7.3-12.9v-1.6h7.6v1.6zm5.6 12.6c-1.2 0-2-.3-2.6-.8s-.8-1.4-.8-2.5v-14.2h1.8v14.1c0 .7.1 1.1.4 1.4s.7.4 1.4.4h1.9v1.6h-2Zm9.7.3c-1.4 0-2.5-.5-3.4-1.4s-1.3-2.3-1.3-3.9v-9.1h1.8v8.6c0 1.5.3 2.6.8 3.3s1.4 1.1 2.5 1.1 2.2-.4 2.9-1.2 1.1-1.9 1.1-3.3v-8.4h1.8v14.2h-1.7v-3.6l.2.1c-.2 1.2-.8 2.1-1.6 2.8s-1.9 1-3.2 1Zm15.3 0c-1.2 0-2.3-.3-3.2-.9s-1.6-1.5-2.1-2.6-.7-2.4-.7-3.9.2-2.8.7-3.9 1.2-2 2.1-2.6 1.9-.9 3.2-.9 2 .2 2.8.8 1.4 1.2 1.8 2v-7.3h1.8v19h-1.6v-2.6c-.5.9-1.1 1.6-1.9 2.2-.9.5-1.8.8-2.8.8Zm.3-1.6c.9 0 1.6-.2 2.3-.7s1.1-1.1 1.5-2c.3-.9.5-1.9.5-3s-.2-2.1-.5-3-.8-1.5-1.5-2c-.6-.5-1.4-.7-2.3-.7-1.3 0-2.4.5-3.2 1.5s-1.2 2.4-1.2 4.2.4 3.1 1.2 4.2 1.9 1.6 3.2 1.6Zm9.9-15.2v-2.4h1.9v2.4zm0 16.5v-14.2h1.8v14.2zm11.3.3c-1.3 0-2.4-.3-3.4-.9-.9-.6-1.7-1.5-2.2-2.6s-.8-2.4-.8-3.9.3-2.8.8-3.9 1.2-2 2.2-2.6 2.1-.9 3.4-.9 2.4.3 3.3.9 1.7 1.5 2.2 2.6.8 2.4.8 3.9-.3 2.8-.8 3.9-1.2 2-2.2 2.6-2.1.9-3.3.9m0-1.6q2.1 0 3.3-1.5t1.2-4.2c0-2.7-.4-3.2-1.2-4.2q-1.2-1.5-3.3-1.5c-2.1 0-2.5.5-3.3 1.5q-1.2 1.5-1.2 4.2c0 2.7.4 3.2 1.2 4.2q1.2 1.5 3.3 1.5m-8.8-159.6c-.4 6.7-6.8 13.9-13.8 18-8.5 4.9-16.9 4.6-21.8 4.4-4.3-.2-16.1-1-27.1-9.6-13.5-10.6-16.2-25.7-17-30.3-.4-2.5-4.2-27.7 14.1-45.5 17.3-16.8 43.3-16.1 55-9.4 2.1 1.2 6.9 4 9.5 9.6 3 6.4 1.6 12.4 1.2 13.6-.3 1.3-1.4 5.1-4.5 8.5-4.5 4.8-9.1 4.4-10.2 8.5-.5 1.6-.4 3.7.9 5.1 1.7 1.8 4.6 1.4 5.3 1.3 3.9-.5 6.4-3.5 7.6-4.8 7.1-8 12.3-13.9 18.6-15.8.6-.2 7.3-2.1 13.1 1.3 7.1 4.2 8.3 13.8 7.6 19.7-.5 4.4-2.2 7.5-3.4 9.5-5.3 9.3-16.1 17.5-21.9 14.8-2-1-3.6-3.4-3.7-5.8-.1-3.1 2.4-5.2 3-5.7 1.7-1.5 3.4-2.5 7.7-2.6 4 0 8.1.8 11.9-2.2 4.5-3.6 4.9-9.7 4.9-10.7.3-5.4-2.3-11.7-7.4-14.1-.7-.3-3.6-1.6-7.8-.7-12.1 2.6-11.6 18.3-26.2 28.2-2.5 1.7-11.2 7.6-20.7 5.1-5.1-1.4-11.8-5.5-13.4-12.5-.1-.6-1.6-7.1 2.3-12.5 7.8-10.8 26.9-2.4 32.9-12 2.9-4.7 1.5-11.6-1.5-15.8-3.6-5-9.4-6.1-12.8-6.7-11.6-2-25.4 2.5-34.5 11.4-17.8 17.5-14.5 49.6-1.1 65.8 2.2 2.7 8 9.7 17.9 11.8 1.7.3 11.2 2.4 18.8-3.2 2.1-1.5 4.9-3.6 5.3-6.8.6-4.3-3.6-6.2-3.2-11.9 0-1.1.3-3.8 2.4-5.8.4-.4 2.6-2.5 5.6-2.1 2.8.4 4.2 2.6 4.8 3.4 1.7 2.6 1.5 5.3 1.4 6.3Z" style="fill:#fff"/><path d="M-449.3-9.4c0 2 .2 3.9.8 5.8.5 1.9 1.3 3.6 2.4 5.3.9 1.5 2.1 2.8 3.5 3.9s3 1.9 4.7 2.4c1.8.6 3.6.9 5.5.9 3.2 0 5.9-.7 8.4-2.2 2.4-1.5 4.2-3.5 5.5-6.1.3-.6.5-1.3.8-2s.4-1.4.6-2.2h11.7c-.3 2.8-.9 5.4-1.9 7.7s-2.3 4.4-3.9 6.4c-3.3 4-7.6 6.8-12.8 8.4-2.6.8-5.3 1.2-8.2 1.2s-5.7-.4-8.6-1.3-5.7-2.3-8.4-4.4c-2.4-1.8-4.4-3.9-6.2-6.4q-2.55-3.75-3.9-8.1c-.5-1.5-.8-3-1-4.5s-.4-3.2-.4-4.8c0-3.4.5-6.6 1.4-9.5 1-2.9 2.3-5.6 3.9-8 1.9-2.6 4-4.8 6.5-6.6s4.9-3.1 7.4-3.9c1.4-.5 2.9-.8 4.4-1.1s3.1-.4 4.7-.4c5.6 0 10.7 1.5 15.2 4.4 2.2 1.4 4.1 3.1 5.8 5.1s3 4.1 4 6.4c1 2.4 1.6 4.9 1.9 7.6h-11.7c-.3-1.5-.7-2.9-1.4-4.2s-1.4-2.5-2.3-3.4c-.9-1-2-1.8-3.1-2.6-1.2-.7-2.5-1.3-3.9-1.7-1.5-.4-3-.5-4.5-.5s-4 .3-5.7.9-3.2 1.4-4.4 2.4c-2.8 2.2-4.8 5.2-5.9 9q-.45 1.35-.6 3c-.1 1-.2 2.1-.2 3.1Zm48.2 28.9v-58.1h11.5V8.8h12v10.7zm25.4 0 9.1-58.1h16.4l9.1 58.1h-11.5l-1.7-13.3h-8.2l-1.7 13.3zm14.5-24.1h5.5l-1.9-18.2c0-.8-.1-1.4-.2-2v-4.5h-1v4.8c0 .6 0 1.2-.2 1.7l-1.9 18.2Zm54.5-18.9c0 2.9-.6 5.4-1.8 7.4-.6 1-1.2 1.8-2 2.6s-1.8 1.4-3 1.9q-1.65.75-3.6.9v.8c1.2 0 2.4.4 3.6 1.1 1.1.8 2 1.7 2.7 3 .2.3.3.6.4 1s.2.6.3 1l5.8 23.4h-11.5L-322.6-5h-3.7v24.6h-11.5v-58.1h17.1c1.6 0 3.1.2 4.5.7s2.8 1.2 3.9 2.1c1.2.9 2.2 2 2.9 3.2s1.4 2.6 1.9 4.1c.4 1.6.6 3.3.6 5Zm-19.6 7.7h2.7c.6 0 1.2 0 1.8-.2s1.1-.4 1.6-.8c.9-.7 1.4-1.7 1.8-2.9.1-.6.2-1.2.2-2.1 0-1.9-.5-3.3-1.4-4.4s-2.3-1.6-4-1.6h-2.7v12.1Zm23.2 35.3 9.1-58.1h16.4l9.1 58.1H-280l-1.7-13.3h-8.2l-1.7 13.3zm14.6-24.1h5.5l-1.9-18.2c0-.8-.1-1.4-.1-2s0-1.2-.1-1.9 0-1.6 0-2.6h-1v4.8c0 .6 0 1.2-.1 1.7l-1.9 18.2Zm46.1-4.8c0 2 .2 3.9.8 5.8.5 1.9 1.3 3.6 2.4 5.3.9 1.5 2.1 2.8 3.5 3.9s3 1.9 4.7 2.4c1.8.6 3.6.9 5.5.9 3.2 0 5.9-.7 8.4-2.2 2.4-1.5 4.2-3.5 5.5-6.1.3-.6.6-1.3.8-2s.4-1.4.6-2.2h11.7c-.3 2.8-.9 5.4-1.9 7.7s-2.3 4.4-3.9 6.4c-3.4 4-7.6 6.8-12.8 8.4-2.6.8-5.3 1.2-8.2 1.2s-5.7-.4-8.6-1.3-5.7-2.3-8.4-4.4c-2.4-1.8-4.4-3.9-6.1-6.4q-2.55-3.75-3.9-8.1c-.5-1.5-.8-3-1.1-4.5s-.4-3.2-.4-4.8c0-3.4.5-6.6 1.4-9.5s2.3-5.6 3.9-8c1.9-2.6 4-4.8 6.5-6.6s4.9-3.1 7.4-3.9c1.4-.5 2.9-.8 4.4-1.1s3.1-.4 4.7-.4c5.6 0 10.7 1.5 15.2 4.4 2.2 1.4 4.1 3.1 5.8 5.1s3 4.1 4 6.4c1 2.4 1.6 4.9 1.9 7.6h-11.7c-.3-1.5-.7-2.9-1.4-4.2s-1.4-2.5-2.3-3.4c-.9-1-1.9-1.8-3.1-2.6-1.2-.7-2.5-1.3-3.9-1.7-1.5-.4-3-.5-4.5-.5s-4 .3-5.7.9-3.2 1.4-4.4 2.4c-2.8 2.2-4.8 5.2-5.9 9q-.45 1.35-.6 3c-.1 1-.2 2.1-.2 3.1Zm47.7 14.5v-43.8h11.5V5.1c0 .9.3 1.6.8 2.2.2.3.5.6.8.8s.7.4 1.1.5.8.2 1.2.2q1.5 0 2.7-.9c.7-.6 1.1-1.5 1.1-2.7v-43.8h11.5V5.2c0 3.6-.9 6.7-2.6 9.1-.9 1.2-2 2.3-3.2 3.1s-2.6 1.5-4.2 2-3.3.7-5.2.7-3.8-.2-5.3-.7-2.9-1.1-4.1-1.9c-2.5-1.7-4.3-4.1-5.2-7.2-.5-1.5-.7-3.2-.7-5Zm60.3 14.4h-24.4v-58.1h24.2v10.8h-12.7v11.1h11.7V-6h-11.7V8.8h12.9zm4.4 0v-58.1h11.5V8.8h12v10.7zm27.9 0v-58.1h11.5V8.8h12v10.7zm52.2 0h-24.4v-58.1h24.2v10.8h-12.7v11.1h11.7V-6h-11.7V8.8h12.9zm-235.3 39.8c-1.2 0-2.3-.2-3.1-.6-.9-.4-1.5-1-2-1.7s-.8-1.5-.8-2.4h1.8c.1.8.5 1.6 1.2 2.1.7.6 1.7.9 2.9.9s2-.2 2.6-.6.9-.9.9-1.7 0-.8-.3-1.1c-.2-.3-.6-.6-1.1-.8s-1.4-.4-2.6-.6c-1.3-.2-2.4-.6-3.1-.9-.8-.4-1.3-.8-1.6-1.3s-.4-1.1-.4-1.9c0-1.3.4-2.3 1.4-3.1s2.2-1.2 3.8-1.2 2 .2 2.8.6 1.4.9 1.8 1.6.7 1.4.9 2.2l-1.8.2q-.15-.9-.6-1.5c-.3-.4-.7-.8-1.2-1s-1.1-.4-1.9-.4c-1.1 0-1.9.2-2.4.7s-.8 1.1-.8 1.8.1.9.4 1.3c.2.3.6.6 1.1.8s1.3.4 2.2.6q2.1.3 3.3.9c.8.4 1.4.8 1.7 1.3s.5 1.1.5 1.9-.2 1.6-.7 2.2-1.1 1.1-1.9 1.4-1.8.5-2.8.5Zm7.3-12.9v-1.6h7.6v1.6zm5.7 12.6c-1.2 0-2-.3-2.6-.8s-.8-1.4-.8-2.5V41.5h1.8v14.1c0 .7.1 1.1.4 1.4s.7.4 1.4.4h1.9V59h-2Zm9.7.3c-1.4 0-2.5-.5-3.4-1.4s-1.3-2.3-1.3-3.9v-9.1h1.8v8.6c0 1.5.3 2.6.8 3.3s1.4 1.1 2.5 1.1 2.2-.4 2.9-1.2 1.1-1.9 1.1-3.3V45h1.8v14.2h-1.7v-3.6l.2.1c-.2 1.2-.8 2.1-1.6 2.8s-1.9 1-3.2 1Zm15.2 0c-1.2 0-2.3-.3-3.2-.9s-1.6-1.5-2.1-2.6-.7-2.4-.7-3.9.2-2.8.7-3.9 1.2-2 2.1-2.6 1.9-.9 3.2-.9 2 .2 2.8.8 1.4 1.2 1.8 2V40h1.8v19h-1.6v-2.6c-.5.9-1.1 1.6-1.9 2.2-.9.5-1.8.8-2.8.8Zm.3-1.7c.9 0 1.6-.2 2.3-.7s1.1-1.1 1.5-2c.3-.9.5-1.9.5-3s-.2-2.1-.5-3-.8-1.5-1.5-2c-.6-.5-1.4-.7-2.3-.7-1.3 0-2.4.5-3.2 1.5s-1.2 2.4-1.2 4.2.4 3.1 1.2 4.2 1.9 1.6 3.2 1.6Zm9.9-15.1v-2.4h1.9v2.4zm.1 16.5V44.8h1.8V59zm11.2.3c-1.3 0-2.4-.3-3.4-.9-.9-.6-1.7-1.5-2.2-2.6s-.8-2.4-.8-3.9.3-2.8.8-3.9 1.2-2 2.2-2.6 2.1-.9 3.4-.9 2.4.3 3.3.9 1.7 1.5 2.2 2.6.8 2.4.8 3.9-.3 2.8-.8 3.9-1.2 2-2.2 2.6-2.1.9-3.3.9m0-1.7q2.1 0 3.3-1.5t1.2-4.2c0-2.7-.4-3.2-1.2-4.2q-1.2-1.5-3.3-1.5c-2.1 0-2.5.5-3.3 1.5q-1.2 1.5-1.2 4.2c0 2.7.4 3.2 1.2 4.2q1.2 1.5 3.3 1.5m-8.8-159.6c-.4 6.7-6.8 13.9-13.8 18-8.5 4.9-16.9 4.6-21.8 4.4-4.3-.2-16.1-1-27.1-9.6-13.5-10.6-16.2-25.7-17-30.3-.4-2.5-4.2-27.7 14.1-45.5 17.3-16.8 43.3-16.1 55-9.4 2.1 1.2 6.9 4 9.5 9.6 3 6.4 1.6 12.4 1.2 13.6-.3 1.3-1.4 5.1-4.5 8.5-4.5 4.8-9.1 4.4-10.2 8.5-.5 1.6-.4 3.7.9 5.1 1.7 1.8 4.6 1.4 5.3 1.3 3.9-.5 6.4-3.5 7.6-4.8 7.1-8 12.3-13.9 18.6-15.8.6-.2 7.3-2.1 13.1 1.3 7.1 4.2 8.3 13.8 7.6 19.7-.5 4.4-2.2 7.5-3.4 9.5-5.3 9.3-16.1 17.5-21.9 14.8-2-1-3.6-3.4-3.7-5.8-.1-3.1 2.4-5.2 3-5.7 1.7-1.5 3.4-2.5 7.7-2.6 4 0 8.1.8 11.9-2.2 4.5-3.6 4.9-9.7 4.9-10.7.3-5.4-2.3-11.7-7.4-14.1-.7-.3-3.6-1.6-7.8-.7-12.1 2.6-11.6 18.3-26.2 28.2-2.5 1.7-11.2 7.6-20.7 5.1-5.1-1.4-11.8-5.5-13.4-12.5-.1-.6-1.6-7.1 2.3-12.5 7.8-10.8 26.9-2.4 32.9-12 2.9-4.7 1.5-11.6-1.5-15.8-3.6-5-9.4-6.1-12.8-6.7-11.6-2-25.4 2.5-34.5 11.4-17.8 17.5-14.5 49.6-1.1 65.8 2.2 2.7 8 9.7 17.9 11.8 1.7.3 11.2 2.4 18.8-3.2 2.1-1.5 4.9-3.6 5.3-6.8.6-4.3-3.6-6.2-3.2-11.9 0-1.1.3-3.8 2.4-5.8.4-.4 2.6-2.5 5.6-2.1 2.8.4 4.2 2.6 4.8 3.4 1.7 2.6 1.5 5.3 1.4 6.3Z" style="fill:#00f"/></svg>